<?xml version="1.0" encoding="UTF-8" standalone="no"?>
<svg
   version="1.1"
   x="0px"
   y="0px"
   viewBox="0 0 90 90"
   enable-background="new 0 0 100 100"
   xml:space="preserve"
   id="svg1"
   sodipodi:docname="logo.svg"
   width="90"
   height="90"
   inkscape:version="1.3.1 (91b66b0783, 2023-11-16)"
   xmlns:inkscape="http://www.inkscape.org/namespaces/inkscape"
   xmlns:sodipodi="http://sodipodi.sourceforge.net/DTD/sodipodi-0.dtd"
   xmlns="http://www.w3.org/2000/svg"
   xmlns:svg="http://www.w3.org/2000/svg"><defs
     id="defs1" /><sodipodi:namedview
     id="namedview1"
     pagecolor="#ffffff"
     bordercolor="#000000"
     borderopacity="0"
     inkscape:showpageshadow="2"
     inkscape:pageopacity="0.0"
     inkscape:pagecheckerboard="true"
     inkscape:deskcolor="#d1d1d1"
     inkscape:zoom="6.568"
     inkscape:cx="43.848965"
     inkscape:cy="38.900731"
     inkscape:window-width="1920"
     inkscape:window-height="1017"
     inkscape:window-x="-8"
     inkscape:window-y="-8"
     inkscape:window-maximized="1"
     inkscape:current-layer="svg1"
     showgrid="false" /><path
     fill-rule="evenodd"
     clip-rule="evenodd"
     d="m 45.7855,33.612 c -1.201,-0.773 -2.314,-1.529 -3.332,-2.27 l -0.787,-0.556 c -0.248,-0.185 -0.527,-0.402 -0.834,-0.646 -0.338,-0.312 -0.832,-0.788 -1.479,-1.438 -0.617,-0.648 -1.066,-1.139 -1.344,-1.48 -0.557,-0.557 -1.02,-1.02 -1.389,-1.389 -0.434,-0.341 -0.914,-0.726 -1.438,-1.158 -0.617,-0.431 -1.143,-0.742 -1.574,-0.925 l -0.738,-0.323 c -0.094,-0.033 -0.234,-0.063 -0.418,-0.091 l -1.299,-0.326 c -0.492,-0.033 -0.771,-0.063 -0.83,-0.093 -1.113,-0.125 -2.254,-0.077 -3.43,0.141 -0.955,0.149 -2.051,0.413 -3.283,0.784 -0.277,0.091 -1.266,0.402 -2.965,0.926 -2.438,0.772 -4.352,1.252 -5.741,1.435 -0.801,0.155 -1.649,0.217 -2.545,0.187 -0.709,-0.031 -1.48,-0.139 -2.314,-0.323 -0.648,-0.154 -1.266,-0.355 -1.853,-0.604 -0.216,-0.063 -0.51,-0.2 -0.879,-0.416 -0.277,-0.155 -0.51,-0.264 -0.694,-0.321 -0.743,-0.465 -1.327,-0.99 -1.761,-1.577 -0.307,-0.433 -0.414,-0.661 -0.321,-0.692 l 0.602,0.506 c 0.431,0.466 1.018,0.881 1.757,1.25 0.03,0.033 0.278,0.141 0.743,0.325 0.152,0.031 0.401,0.123 0.738,0.279 0.557,0.185 1.158,0.34 1.808,0.463 0.864,0.121 1.604,0.184 2.219,0.184 0.744,0 1.546,-0.075 2.41,-0.229 1.328,-0.215 3.146,-0.742 5.461,-1.575 1.699,-0.617 2.703,-0.973 3.01,-1.063 1.234,-0.401 2.359,-0.679 3.381,-0.835 2.807,-0.526 5.322,-0.278 7.547,0.739 0.494,0.155 1.078,0.512 1.76,1.065 0.617,0.369 1.154,0.771 1.619,1.204 0.4,0.403 0.879,0.911 1.434,1.53 0.311,0.277 0.773,0.738 1.391,1.389 0.434,0.492 0.896,0.956 1.389,1.389 0.186,0.123 0.414,0.31 0.695,0.554 0.369,0.31 0.617,0.512 0.742,0.604 0.861,0.646 1.957,1.34 3.287,2.082 2.066,1.235 4.227,2.237 6.479,3.01 1.42,0.492 2.471,0.833 3.148,1.014 0.342,0.097 0.848,0.173 1.527,0.234 l 1.436,-0.046 c 0.68,-0.03 1.637,-0.213 2.871,-0.556 1.141,-0.31 2.068,-0.51 2.779,-0.602 l 2.545,-0.045 c 0.184,0 0.385,0 0.602,0 l 3.611,0.555 c 0.186,0.092 0.74,0.248 1.668,0.459 l 1.25,0.42 c 0.121,0.063 0.293,0.155 0.51,0.278 0.029,-0.094 0.09,-0.153 0.184,-0.185 0.277,-0.25 0.57,-0.417 0.881,-0.514 0.307,-0.088 0.584,-0.121 0.834,-0.088 0.15,0.063 0.291,0.138 0.416,0.23 0.029,0.492 0.061,0.804 0.092,0.925 0.152,0.494 0.402,0.896 0.738,1.204 0.373,0.339 1.053,0.79 2.039,1.343 0.617,0.401 1.047,0.711 1.297,0.927 0.277,0.121 0.51,0.308 0.693,0.554 0.063,0.095 0.184,0.22 0.369,0.373 l 0.234,0.415 0.045,0.045 c 0.184,0.278 0.248,0.542 0.184,0.79 0,0.216 -0.09,0.448 -0.275,0.692 l -0.188,0.23 -0.045,0.141 -0.045,0.091 c -0.096,0.219 -0.107,0.373 -0.047,0.463 0,0.123 0.047,0.266 0.137,0.42 l 0.928,1.018 c 0.092,0.215 0.154,0.386 0.186,0.509 0.029,0.154 0.029,0.339 0,0.557 0,0.094 -0.031,0.153 -0.094,0.185 l -0.092,0.187 c -0.033,0.092 -0.125,0.195 -0.277,0.324 -0.029,0.029 -0.141,0.106 -0.326,0.231 l -0.277,0.185 c -0.184,0.06 -0.324,0.092 -0.416,0.092 -0.309,0.123 -0.555,0.2 -0.742,0.229 -0.432,0.063 -0.66,0.08 -0.693,0.048 -0.092,-0.091 0.063,-0.277 0.465,-0.554 0.027,0 0.246,-0.139 0.645,-0.418 l 0.465,-0.371 0.141,-0.094 0.09,-0.137 v -0.141 c 0,-0.03 -0.014,-0.06 -0.045,-0.09 l -1.018,-0.974 c -0.25,-0.276 -0.402,-0.602 -0.463,-0.971 -0.094,-0.25 -0.078,-0.587 0.045,-1.02 v -0.141 l 0.326,-0.648 c 0.061,-0.058 0.107,-0.123 0.139,-0.185 l -0.373,-0.509 c -0.061,-0.061 -0.246,-0.2 -0.557,-0.418 -0.029,-0.062 -0.414,-0.354 -1.154,-0.879 -0.988,-0.645 -1.682,-1.266 -2.084,-1.85 -0.217,-0.312 -0.371,-0.65 -0.461,-1.021 -0.064,-0.308 -0.064,-0.585 0,-0.833 V 37.36 c -0.311,0.063 -0.574,0.23 -0.789,0.51 l -0.602,0.74 c -0.154,0.218 -0.246,0.325 -0.277,0.325 -0.063,0.125 -0.154,0.185 -0.279,0.185 -0.09,0.03 -0.184,-0.016 -0.275,-0.139 -0.031,-0.063 -0.064,-0.125 -0.096,-0.185 -0.029,-0.155 -0.061,-0.262 -0.09,-0.325 -0.033,-0.217 0.016,-0.49 0.137,-0.834 0.033,-0.091 0.094,-0.214 0.186,-0.37 -0.186,0 -0.355,-0.015 -0.508,-0.046 l -0.512,-0.139 c -0.307,-0.123 -0.541,-0.187 -0.693,-0.187 -0.678,-0.153 -1.219,-0.261 -1.619,-0.323 l -1.945,-0.234 c -1.852,-0.151 -3.381,-0.121 -4.584,0.097 -0.709,0.092 -1.605,0.294 -2.684,0.602 -1.174,0.369 -2.145,0.601 -2.918,0.694 l -1.713,0.091 c -0.711,-0.062 -1.281,-0.135 -1.713,-0.231 -0.742,-0.123 -1.852,-0.459 -3.332,-1.018 -2.321,-0.738 -4.574,-1.728 -6.766,-2.961 z M 1.1585,19.953 1.3875,19.582 c 0.218,-0.338 0.587,-0.602 1.112,-0.786 0.247,-0.093 0.463,-0.137 0.649,-0.137 0.062,0 0.168,0 0.324,0 0.061,0.03 0.168,0.075 0.322,0.137 0.278,0.153 0.494,0.435 0.65,0.834 0.06,0.186 0.169,0.569 0.324,1.158 0.028,0.275 0.014,0.415 -0.05,0.415 -0.06,0.029 -0.153,-0.076 -0.274,-0.323 -0.218,-0.401 -0.402,-0.755 -0.558,-1.064 -0.124,-0.216 -0.263,-0.356 -0.415,-0.418 -0.156,-0.092 -0.372,-0.048 -0.65,0.139 -0.307,0.155 -0.538,0.357 -0.694,0.602 -0.154,0.218 -0.186,0.51 -0.093,0.881 0.124,0.645 0.541,1.452 1.251,2.408 0.586,0.77 1.387,1.45 2.407,2.035 0.988,0.586 2.085,1.034 3.287,1.344 1.205,0.431 2.485,0.726 3.845,0.881 l 2.452,0.044 1.389,-0.185 c 1.234,-0.246 2.391,-0.586 3.473,-1.017 1.389,-0.525 2.469,-0.928 3.24,-1.206 1.141,-0.369 2.129,-0.599 2.965,-0.696 1.016,-0.152 1.896,-0.137 2.637,0.048 0.742,0.093 1.344,0.357 1.805,0.787 0.34,0.217 0.602,0.524 0.787,0.927 0.064,0.092 0.107,0.169 0.141,0.23 l 0.508,-0.139 c 0.217,0 0.447,0 0.695,0 0.402,-0.03 0.74,-0.013 1.018,0.049 0.309,0.06 0.434,0.107 0.371,0.136 0,0.063 -0.123,0.123 -0.371,0.187 -0.029,-0.03 -0.34,0.029 -0.926,0.185 -0.555,0.125 -1.035,0.248 -1.436,0.37 -0.588,0.248 -1.143,0.526 -1.666,0.834 l -0.463,0.321 -1.389,1.298 c -0.463,0.402 -0.85,0.682 -1.16,0.835 -0.43,0.339 -0.877,0.617 -1.338,0.833 -0.525,0.246 -1.082,0.387 -1.668,0.417 -0.277,0.031 -0.555,0.047 -0.834,0.047 l -0.928,-0.047 c -0.523,-0.123 -1.109,-0.278 -1.758,-0.465 -0.371,-0.152 -0.91,-0.381 -1.619,-0.692 -0.773,-0.308 -1.283,-0.508 -1.529,-0.604 -0.586,-0.213 -1.064,-0.354 -1.436,-0.415 -0.4,-0.089 -0.864,-0.077 -1.39,0.048 -0.275,0.031 -0.77,0.093 -1.479,0.183 l -1.48,0.281 c -0.618,0.121 -1.081,0.215 -1.39,0.274 -0.525,0.031 -0.987,0 -1.39,-0.092 -0.492,-0.062 -0.926,-0.212 -1.295,-0.464 -0.31,-0.121 -0.65,-0.292 -1.019,-0.508 -0.342,-0.274 -0.573,-0.494 -0.695,-0.647 -0.247,-0.185 -0.465,-0.281 -0.648,-0.281 -0.186,-0.026 -0.37,-0.026 -0.554,0 -0.433,0.156 -0.726,0.252 -0.88,0.281 -0.217,0.092 -0.342,0.123 -0.373,0.092 -0.031,-0.062 0.047,-0.171 0.231,-0.323 0.28,-0.246 0.556,-0.433 0.836,-0.558 0.245,-0.121 0.538,-0.187 0.88,-0.187 0.247,0 0.538,0.111 0.877,0.327 0.063,0 0.34,0.171 0.834,0.508 0.37,0.157 0.694,0.31 0.972,0.463 0.527,0.22 1.236,0.295 2.131,0.235 0.37,-0.125 0.786,-0.268 1.248,-0.418 l 0.466,-0.048 c -1.113,-0.121 -2.131,-0.355 -3.059,-0.694 -1.357,-0.433 -2.559,-0.971 -3.609,-1.621 -1.145,-0.77 -2.037,-1.602 -2.686,-2.498 -0.278,-0.402 -0.556,-0.883 -0.832,-1.437 -0.278,-0.556 -0.434,-1.063 -0.464,-1.527 0,-0.34 0.015,-0.617 0.047,-0.833 0.001,-0.157 0.032,-0.28 0.095,-0.373 z m 2.222,9.726 0.508,0.504 c 0.155,0.067 0.401,0.218 0.741,0.464 0.37,0.248 0.694,0.479 0.975,0.696 0.459,0.248 0.893,0.415 1.293,0.508 0.338,0.063 0.619,0.094 0.834,0.094 0.153,0 0.449,-0.03 0.878,-0.094 0.712,-0.121 1.376,-0.291 1.993,-0.508 1.079,-0.277 1.834,-0.435 2.268,-0.464 0.247,-0.032 0.695,-0.063 1.343,-0.092 0.432,0.028 0.679,0.046 0.74,0.046 0.155,0.062 0.386,0.125 0.696,0.183 l 0.691,0.232 c 0.188,0.063 0.42,0.187 0.693,0.373 0.557,0.277 0.977,0.557 1.252,0.833 0.311,0.275 0.68,0.603 1.113,0.972 0.246,0.246 0.615,0.604 1.109,1.063 0.371,0.401 0.74,0.744 1.111,1.018 l 0.559,0.465 c 0.184,0.095 0.396,0.187 0.645,0.279 0.832,0.463 1.82,0.723 2.963,0.786 0.402,-0.063 0.926,-0.109 1.574,-0.141 0.34,-0.028 0.91,-0.107 1.713,-0.229 1.018,-0.125 1.607,-0.187 1.762,-0.187 0.77,-0.062 1.42,-0.077 1.943,-0.046 1.264,0.03 2.547,0.278 3.844,0.738 1.08,0.435 2.205,1.036 3.379,1.808 0.74,0.556 1.697,1.312 2.869,2.268 0.617,0.527 1.498,1.281 2.639,2.27 0.957,0.863 1.791,1.542 2.5,2.038 1.82,1.387 3.551,2.391 5.188,3.01 0.832,0.306 1.666,0.539 2.498,0.694 0.896,0.185 1.744,0.262 2.547,0.229 0.678,0 1.42,-0.031 2.221,-0.093 0.342,-0.03 1.02,-0.094 2.037,-0.185 1.42,-0.185 2.455,-0.294 3.104,-0.327 -0.156,-0.397 -0.324,-0.721 -0.508,-0.969 -0.188,-0.277 -0.342,-0.478 -0.465,-0.603 -0.063,-0.125 -0.063,-0.201 0,-0.23 0,-0.093 0.078,-0.077 0.23,0.046 0.217,0.06 0.434,0.185 0.65,0.369 0.369,0.343 0.738,0.771 1.111,1.299 h 0.047 l -0.047,0.044 c 0.152,0.25 0.295,0.494 0.416,0.742 0.217,0.402 0.461,0.956 0.742,1.666 l 0.695,1.806 c 0.307,0.587 0.693,1.111 1.154,1.573 0.311,0.34 0.896,0.852 1.758,1.53 0.805,0.71 1.393,1.264 1.762,1.666 0.523,0.492 1.018,1.032 1.482,1.621 0.893,1.109 1.664,2.158 2.313,3.146 0.465,0.773 0.803,1.637 1.02,2.593 1.699,0.248 3.395,0.634 5.092,1.155 0.463,0.156 0.896,0.343 1.297,0.556 l 0.092,-0.6 c 0,-0.218 -0.045,-0.371 -0.139,-0.464 -0.031,-0.03 -0.078,-0.076 -0.139,-0.139 l -0.23,-0.092 c -0.217,-0.033 -0.479,-0.077 -0.787,-0.141 l -0.971,-0.137 c -0.402,0 -0.791,-0.062 -1.16,-0.187 -0.4,-0.125 -0.818,-0.324 -1.252,-0.6 -0.336,-0.248 -0.676,-0.573 -1.016,-0.974 -0.494,-0.524 -1.098,-1.326 -1.807,-2.407 -0.771,-1.204 -1.357,-2.114 -1.758,-2.733 l -2.037,-2.869 c -0.68,-1.109 -1.127,-2.208 -1.344,-3.287 -0.031,-0.433 -0.078,-0.756 -0.137,-0.973 v -0.879 c -0.064,-0.558 -0.094,-1.065 -0.094,-1.531 0.061,-0.677 0.139,-1.23 0.23,-1.665 0.063,-0.308 0.154,-0.554 0.275,-0.738 0.127,-0.371 0.297,-0.62 0.51,-0.741 0.25,-0.25 0.543,-0.403 0.883,-0.463 0.309,-0.062 0.586,-0.062 0.834,0 0.09,0 0.215,0.046 0.369,0.141 l 0.926,0.322 c 1.234,0.525 2.33,1.127 3.289,1.807 0.74,0.522 1.064,0.832 0.969,0.923 -0.029,0.065 -0.445,-0.105 -1.248,-0.506 -1.234,-0.525 -2.361,-0.958 -3.381,-1.298 l -0.555,-0.185 -0.51,-0.095 c -0.184,0 -0.354,0 -0.508,0 -0.125,0.065 -0.203,0.123 -0.234,0.187 -0.186,0.183 -0.309,0.494 -0.369,0.925 -0.09,0.309 -0.139,0.771 -0.139,1.387 0,0.498 0.016,0.991 0.049,1.485 l 0.09,0.604 0.047,0.185 c 0.031,0.431 0.061,0.662 0.094,0.692 0.152,0.833 0.463,1.665 0.928,2.502 l 0.783,0.508 c 0.988,0.587 1.697,1.035 2.131,1.343 0.277,0.185 0.465,0.308 0.557,0.371 0.275,0.246 0.477,0.433 0.602,0.556 0.092,0.093 0.229,0.275 0.416,0.554 0.121,0.371 0.217,0.619 0.279,0.74 0.059,0.433 0.027,0.881 -0.094,1.345 l -0.234,0.927 c -0.09,0.15 -0.139,0.275 -0.139,0.369 0.434,0.71 0.834,1.283 1.207,1.714 0.275,0.337 0.539,0.646 0.785,0.923 0.373,0.277 0.678,0.446 0.928,0.512 0.273,0.123 0.584,0.2 0.924,0.23 l 1.018,0.186 c 0.404,0.155 0.697,0.261 0.881,0.324 l 0.371,0.277 c 0.186,0.094 0.385,0.277 0.602,0.556 0.217,0.185 0.34,0.571 0.369,1.158 0,0.185 0,0.34 0,0.463 1.514,0.925 2.672,2.192 3.475,3.795 l -0.049,0.14 c -1.016,-0.742 -2.113,-1.526 -3.287,-2.359 -1.232,-0.898 -2.592,-1.56 -4.072,-1.992 -3.301,-0.896 -6.668,-1.466 -10.094,-1.712 l -4.074,-0.373 c 4.506,-0.183 7.609,-0.165 9.307,0.048 -0.369,-1.048 -0.619,-1.651 -0.744,-1.806 -0.645,-0.895 -1.418,-1.837 -2.311,-2.825 -0.557,-0.585 -1.068,-1.094 -1.529,-1.527 -0.311,-0.31 -0.895,-0.818 -1.76,-1.526 -0.031,-0.063 -0.107,-0.139 -0.232,-0.231 -0.432,-0.153 -0.924,-0.355 -1.48,-0.6 l -3.518,-1.486 c -0.123,-0.031 -0.293,-0.091 -0.51,-0.183 l -1.342,-0.557 c -0.465,-0.217 -0.771,-0.354 -0.93,-0.419 -0.336,-0.183 -0.645,-0.398 -0.922,-0.646 -0.094,-0.092 -0.219,-0.248 -0.371,-0.463 l -0.094,-0.185 v -0.093 l -0.092,-0.092 v -0.139 l -0.045,-0.046 V 51.99 c 0,-0.216 0.061,-0.433 0.184,-0.65 0.031,-0.155 0.092,-0.294 0.186,-0.415 0.125,-0.216 0.307,-0.496 0.557,-0.833 -1.422,0.216 -2.594,0.369 -3.52,0.46 -0.867,0 -1.76,-0.075 -2.686,-0.233 -0.865,-0.09 -1.789,-0.304 -2.777,-0.644 -1.822,-0.648 -3.658,-1.668 -5.51,-3.057 -0.738,-0.526 -1.621,-1.201 -2.637,-2.036 -1.176,-0.986 -2.055,-1.729 -2.641,-2.222 -1.051,-0.929 -1.977,-1.637 -2.777,-2.129 -1.082,-0.713 -2.145,-1.268 -3.195,-1.665 -1.02,-0.435 -2.113,-0.683 -3.287,-0.746 -0.678,-0.031 -1.82,0.063 -3.426,0.278 -0.896,0.121 -1.496,0.187 -1.805,0.187 -0.68,0.029 -1.281,0.046 -1.807,0.046 -1.328,-0.03 -2.5,-0.31 -3.516,-0.832 -0.313,-0.185 -0.559,-0.339 -0.744,-0.464 l -0.646,-0.51 c -0.402,-0.34 -0.789,-0.71 -1.158,-1.109 -0.463,-0.466 -0.82,-0.817 -1.064,-1.067 -0.432,-0.433 -0.787,-0.756 -1.066,-0.972 -0.646,-0.649 -1.371,-1.096 -2.172,-1.344 -0.774,-0.244 -1.546,-0.306 -2.317,-0.185 -0.401,0.063 -1.141,0.2 -2.222,0.415 -0.709,0.188 -1.422,0.312 -2.131,0.373 -0.463,0.031 -0.786,0.031 -0.973,0 -0.277,0 -0.602,-0.032 -0.973,-0.092 -0.399,-0.154 -0.878,-0.416 -1.436,-0.789 -0.523,-0.34 -1.033,-0.815 -1.525,-1.435 -0.339,-0.368 -0.464,-0.584 -0.37,-0.641 z m 15.923,-0.189 c 1.328,0.558 2.35,0.895 3.059,1.021 l 0.369,0.042 h 1.064 c 0.463,-0.026 0.863,-0.138 1.203,-0.32 0.621,-0.218 1.375,-0.666 2.27,-1.345 l 1.527,-1.158 0.555,-0.324 c 0.74,-0.432 1.422,-0.692 2.037,-0.787 l 0.092,0.046 c -0.029,-0.028 -0.061,-0.076 -0.092,-0.136 -0.277,-0.249 -0.584,-0.446 -0.926,-0.606 -0.463,-0.274 -1.018,-0.431 -1.666,-0.461 -0.617,-0.063 -1.357,0 -2.223,0.187 -0.771,0.123 -1.697,0.384 -2.777,0.788 -0.588,0.216 -1.617,0.663 -3.102,1.343 l -1.807,0.69 -1.34,0.326 0.645,0.187 c 0.064,0.06 0.186,0.124 0.373,0.183 z m 46.621,19.862 c -0.43,0.121 -1.326,0.31 -2.684,0.556 -0.094,0.121 -0.201,0.246 -0.324,0.371 -0.369,0.71 -0.586,1.097 -0.646,1.158 l -0.141,0.276 v 0.323 h 0.045 v -0.044 l 0.234,0.185 c 0.307,0.248 0.77,0.48 1.387,0.694 l 0.881,0.325 c 0.125,0.032 0.293,0.105 0.51,0.23 0.092,0.031 0.246,0.105 0.461,0.23 0.834,0.308 1.467,0.556 1.9,0.738 0.063,0.033 0.121,0.064 0.186,0.095 -0.154,-0.246 -0.309,-0.556 -0.463,-0.927 -0.125,-0.244 -0.203,-0.416 -0.232,-0.508 l -0.416,-1.389 c -0.186,-0.65 -0.373,-1.188 -0.559,-1.621 -0.059,-0.214 -0.108,-0.446 -0.139,-0.692 z m 11.297,9.767 c 0.094,0.158 0.232,0.371 0.418,0.65 v -0.187 c 0,-0.339 -0.016,-0.617 -0.045,-0.831 -0.031,-0.063 -0.092,-0.187 -0.186,-0.371 -0.094,-0.125 -0.199,-0.23 -0.324,-0.325 -0.064,-0.063 -0.109,-0.125 -0.141,-0.183 l -0.277,-0.188 c -0.188,-0.185 -0.34,-0.308 -0.463,-0.367 -0.031,-0.033 -0.094,-0.063 -0.184,-0.094 0.123,0.121 0.23,0.276 0.324,0.461 0.247,0.403 0.54,0.881 0.878,1.435 z"
     id="path1"
     style="fill:#ffffff" /></svg>
